<svg aria-hidden="true" style="position: absolute; width: 0; height: 0; overflow: hidden;" version="1.1" xmlns="http://www.w3.org/2000/svg" xmlns:xlink="http://www.w3.org/1999/xlink">
<defs>
<symbol id="icon-instagram" viewBox="0 0 32 32">
<path d="M16 24c-4.418 0-8-3.582-8-8s3.582-8 8-8c4.418 0 8 3.582 8 8s-3.582 8-8 8zM16 21.333c2.945 0 5.333-2.388 5.333-5.333s-2.388-5.333-5.333-5.333c-2.946 0-5.333 2.388-5.333 5.333s2.388 5.333 5.333 5.333z"></path>
<path d="M24 6.667c-0.736 0-1.333 0.597-1.333 1.333s0.597 1.333 1.333 1.333c0.736 0 1.333-0.597 1.333-1.333s-0.597-1.333-1.333-1.333z"></path>
<path d="M2.205 5.701c0.767-1.505 1.991-2.729 3.496-3.496 1.711-0.872 3.951-0.872 8.432-0.872h3.733c4.48 0 6.721 0 8.432 0.872 1.505 0.767 2.729 1.991 3.496 3.496 0.872 1.711 0.872 3.951 0.872 8.432v3.733c0 4.48 0 6.721-0.872 8.432-0.767 1.505-1.991 2.729-3.496 3.496-1.711 0.872-3.951 0.872-8.432 0.872h-3.733c-4.48 0-6.721 0-8.432-0.872-1.505-0.767-2.729-1.991-3.496-3.496-0.872-1.711-0.872-3.951-0.872-8.432v-3.733c0-4.48 0-6.721 0.872-8.432zM17.867 4h-3.733c-2.284 0-3.837 0.002-5.037 0.1-1.169 0.096-1.767 0.269-2.184 0.481-1.004 0.511-1.819 1.327-2.331 2.331-0.213 0.417-0.386 1.015-0.481 2.184-0.098 1.2-0.1 2.753-0.1 5.037v3.733c0 2.284 0.002 3.837 0.1 5.037 0.096 1.169 0.269 1.767 0.481 2.184 0.511 1.003 1.327 1.819 2.331 2.331 0.417 0.213 1.015 0.386 2.184 0.481 1.2 0.098 2.753 0.1 5.037 0.1h3.733c2.284 0 3.837-0.002 5.037-0.1 1.169-0.095 1.767-0.269 2.184-0.481 1.003-0.511 1.819-1.327 2.331-2.331 0.213-0.417 0.386-1.015 0.481-2.184 0.098-1.2 0.1-2.753 0.1-5.037v-3.733c0-2.284-0.002-3.837-0.1-5.037-0.095-1.169-0.269-1.767-0.481-2.184-0.511-1.004-1.327-1.819-2.331-2.331-0.417-0.213-1.015-0.386-2.184-0.481-1.2-0.098-2.753-0.1-5.037-0.1z"></path>
</symbol>
<symbol id="icon-mobile" viewBox="0 0 32 32">
<path d="M10.667 2.667c-2.209 0-4 1.791-4 4v18.667c0 2.209 1.791 4 4 4h10.667c2.209 0 4-1.791 4-4v-18.667c0-2.209-1.791-4-4-4h-10.667zM9.333 6.667c0-0.736 0.597-1.333 1.333-1.333h10.667c0.736 0 1.333 0.597 1.333 1.333v18.667c0 0.736-0.597 1.333-1.333 1.333h-10.667c-0.736 0-1.333-0.597-1.333-1.333v-18.667zM13.333 22.667c-0.736 0-1.333 0.597-1.333 1.333s0.597 1.333 1.333 1.333h5.333c0.736 0 1.333-0.597 1.333-1.333s-0.597-1.333-1.333-1.333h-5.333z"></path>
</symbol>
<symbol id="icon-linkedin" viewBox="0 0 32 32">
<path d="M32 32h-6.4v-11.198c0-3.072-1.355-4.786-3.786-4.786-2.645 0-4.214 1.786-4.214 4.786v11.198h-6.4v-20.8h6.4v2.339c0 0 2.008-3.523 6.533-3.523 4.526 0 7.867 2.762 7.867 8.477v13.507zM3.907 7.874c-2.158 0-3.907-1.763-3.907-3.938 0-2.173 1.749-3.936 3.907-3.936 2.157 0 3.906 1.763 3.906 3.936 0.002 2.174-1.749 3.938-3.906 3.938v0zM0 32h8v-20.8h-8v20.8z"></path>
</symbol>
<symbol id="icon-facebook" viewBox="0 0 32 32">
<path d="M18.914 32v-14.4h4.372l0.714-6.4h-5.086v-3.117c0-1.648 0.042-3.283 2.345-3.283h2.332v-4.576c0-0.069-2.003-0.224-4.030-0.224-4.233 0-6.884 2.651-6.884 7.52v3.68h-4.677v6.4h4.677v14.4h6.237z"></path>
</symbol>
<symbol id="icon-twitter" viewBox="0 0 32 32">
<path d="M10.064 28.8c12.075 0 18.68-9.85 18.68-18.391 0-0.28 0-0.559-0.019-0.836 1.285-0.914 2.394-2.048 3.275-3.346-1.197 0.523-2.469 0.866-3.77 1.018 1.37-0.808 2.395-2.078 2.886-3.576-1.29 0.753-2.699 1.284-4.17 1.569-2.486-2.602-6.645-2.728-9.29-0.28-1.704 1.578-2.429 3.932-1.899 6.177-5.278-0.261-10.197-2.716-13.531-6.753-1.742 2.954-0.851 6.731 2.034 8.628-1.045-0.030-2.067-0.307-2.981-0.808v0.082c0.002 3.076 2.205 5.726 5.267 6.336-0.966 0.26-1.981 0.298-2.963 0.11 0.859 2.634 3.325 4.438 6.133 4.49-2.325 1.799-5.197 2.776-8.154 2.772-0.522-0.002-1.043-0.032-1.563-0.093 3.003 1.897 6.496 2.903 10.064 2.898z"></path>
</symbol>
<symbol id="icon-email" viewBox="0 0 32 32">
<path d="M28.8 7.666l-12.8 11.243-12.8-11.259v-0.45h25.6v0.466zM3.2 24.8v-12.888l12.8 11.256 12.8-11.243v12.875h-25.6zM0 28h32v-24h-32v24z"></path>
</symbol>
<symbol id="icon-openai" viewBox="0 0 132 32">
<path d="M94.183 12.435c-1.93 0-3.308 0.659-3.984 1.908l-0.363 0.676v-2.259h-3.141v13.729h3.304v-8.168c0-1.951 1.061-3.071 2.908-3.071 1.762 0 2.772 1.090 2.772 2.99v8.249h3.305v-8.838c0-3.269-1.794-5.216-4.801-5.216zM78.161 12.435c-3.899 0-6.313 2.433-6.313 6.348v1.928c0 3.765 2.442 6.104 6.375 6.104 2.63 0 4.474-0.964 5.634-2.946l-2.048-1.178c-0.857 1.143-2.226 1.852-3.584 1.852-1.991 0-3.179-1.229-3.179-3.288v-0.546h9.221v-2.277c0-3.648-2.395-5.996-6.103-5.996zM81.26 18.489h-6.226v-0.33c0-2.26 1.11-3.507 3.124-3.507 1.94 0 3.099 1.229 3.099 3.288zM131.796 10.5v-2.626h-11.428v2.626h4.007v13.357h-4.007v2.626h11.428v-2.626h-4.008v-13.357zM45.143 7.495c-5.104 0-8.277 3.18-8.277 8.303v2.769c0 5.121 3.172 8.302 8.277 8.302s8.277-3.182 8.277-8.303v-2.769c-0.001-5.128-3.178-8.303-8.277-8.303zM50.005 18.757c0 3.401-1.772 5.351-4.863 5.351s-4.861-1.95-4.861-5.351v-3.15c0-3.401 1.773-5.351 4.863-5.351s4.863 1.95 4.863 5.351zM63.797 12.435c-1.734 0-3.235 0.718-4.018 1.921l-0.355 0.547v-2.142h-3.143v18.453h3.305v-6.684l0.354 0.525c0.744 1.103 2.196 1.761 3.885 1.761 2.849 0 5.724-1.862 5.724-6.023v-2.334c0-2.998-1.772-6.023-5.752-6.023zM66.244 20.631c0 2.212-1.291 3.587-3.367 3.587-1.936 0-3.287-1.453-3.287-3.533v-2.065c0-2.104 1.362-3.586 3.315-3.586 2.061 0 3.342 1.373 3.342 3.586zM108.117 7.875l-6.668 18.614h3.357l1.277-3.99h7.666l0.013 0.039 1.263 3.951h3.356l-6.679-18.615zM106.902 19.875l3.008-9.411 2.977 9.411zM30.404 13.072c0.261-0.758 0.412-1.631 0.412-2.539 0-1.497-0.409-2.899-1.122-4.098l0.020 0.037c-1.432-2.455-4.053-4.079-7.053-4.079-0.603 0-1.19 0.066-1.756 0.19l0.054-0.010c-1.479-1.663-3.625-2.705-6.014-2.705-0.017 0-0.034 0-0.051 0h0.003c-0.005 0-0.012-0-0.018-0-3.597 0-6.648 2.336-7.719 5.574l-0.016 0.057c-2.316 0.487-4.228 1.917-5.351 3.86l-0.021 0.039c-0.689 1.17-1.096 2.577-1.096 4.079 0 2.101 0.796 4.015 2.103 5.459l-0.006-0.007c-0.26 0.756-0.41 1.628-0.41 2.534 0 1.496 0.409 2.897 1.121 4.097l-0.020-0.037c1.431 2.46 4.054 4.087 7.058 4.087 0.603 0 1.191-0.066 1.757-0.19l-0.054 0.010c1.48 1.663 3.626 2.705 6.015 2.705 0.014 0 0.028-0 0.042-0h-0.002c0.006 0 0.012 0 0.018 0 3.597 0 6.648-2.336 7.719-5.574l0.016-0.057c2.315-0.487 4.227-1.917 5.35-3.86l0.021-0.039c0.692-1.17 1.1-2.579 1.1-4.083 0-2.1-0.797-4.015-2.105-5.457l0.006 0.007zM18.278 30.030c-0.002 0-0.003 0-0.005 0-1.475 0-2.826-0.53-3.873-1.41l0.009 0.008c0.048-0.027 0.14-0.073 0.194-0.108l6.425-3.709c0.317-0.183 0.528-0.52 0.528-0.906 0-0.002 0-0.005-0-0.007v0-9.060l2.715 1.567c0.029 0.014 0.050 0.042 0.053 0.075l0 0v7.499c0 3.34-2.706 6.048-6.045 6.052h-0zM5.289 24.483c-0.51-0.866-0.811-1.909-0.811-3.021 0-0.364 0.032-0.721 0.094-1.067l-0.005 0.037c0.048 0.029 0.132 0.080 0.191 0.114l6.427 3.711c0.151 0.090 0.333 0.143 0.527 0.143s0.376-0.053 0.532-0.146l-0.005 0.003 7.841-4.534v3.134c0 0.003 0 0.006 0 0.009 0 0.031-0.015 0.058-0.038 0.076l-0 0-6.496 3.749c-0.867 0.508-1.908 0.807-3.020 0.807-2.226 0-4.171-1.201-5.222-2.991l-0.015-0.028zM3.605 10.454c0.71-1.218 1.8-2.148 3.105-2.638l0.042-0.014v7.638c0 0.002 0 0.003 0 0.005 0 0.387 0.21 0.725 0.522 0.905l0.005 0.003 7.842 4.529-2.724 1.573c-0.015 0.010-0.033 0.016-0.053 0.016-0.014 0-0.027-0.003-0.039-0.008l0.001 0-6.494-3.75c-1.819-1.066-3.021-3.012-3.021-5.238 0-1.112 0.3-2.155 0.824-3.050l-0.015 0.029zM25.912 15.645l-7.842-4.529 2.712-1.568c0.015-0.010 0.034-0.016 0.053-0.016 0.014 0 0.027 0.003 0.038 0.008l-0.001-0 6.494 3.75c1.819 1.065 3.022 3.010 3.022 5.235 0 2.589-1.627 4.798-3.914 5.66l-0.042 0.014v-7.636c0-0.004 0-0.008 0-0.012 0-0.385-0.209-0.722-0.52-0.903l-0.005-0.003zM28.615 11.576c-0.048-0.029-0.132-0.080-0.191-0.114l-6.427-3.711c-0.151-0.090-0.333-0.143-0.527-0.143s-0.376 0.053-0.532 0.146l0.005-0.003-7.842 4.527v-3.133c-0-0.001-0-0.002-0-0.004 0-0.033 0.015-0.062 0.039-0.081l0-0 6.494-3.749c0.866-0.508 1.908-0.808 3.020-0.808 3.339 0 6.047 2.707 6.047 6.047 0 0.362-0.032 0.717-0.093 1.062l0.005-0.036zM11.62 17.166l-2.716-1.567c-0.028-0.016-0.047-0.043-0.052-0.075l-0-0.001v-7.499c0-0.001 0-0.003 0-0.005 0-3.339 2.707-6.045 6.045-6.045 1.476 0 2.829 0.529 3.879 1.408l-0.009-0.008c-0.048 0.027-0.133 0.073-0.194 0.108l-6.425 3.709c-0.317 0.183-0.527 0.521-0.527 0.908 0 0.002 0 0.004 0 0.006v-0zM13.094 13.985l3.493-2.017 3.492 2.017v4.032l-3.493 2.017-3.493-2.017z"></path>
<symbol id="icon-google" viewBox="0 0 43 32">
<path d="M5.93 9.055c-1.149 0.231-1.887 0.619-2.723 1.462-0.448 0.44-0.724 0.798-0.917 1.171-0.731 1.41-0.768 3.058-0.090 4.461 0.641 1.335 1.887 2.35 3.349 2.738 0.641 0.164 1.902 0.179 2.559 0.022 1.469-0.343 2.738-1.507 3.178-2.909 0.164-0.507 0.276-1.514 0.224-1.962-0.037-0.373-0.045-0.373-0.351-0.403-0.164-0.022-1.193-0.030-2.283-0.022l-1.977 0.007-0.045 1.298h1.649c1.88 0 1.753-0.067 1.499 0.738-0.567 1.813-2.939 2.633-4.856 1.678-0.589-0.298-1.305-1.014-1.604-1.596-0.724-1.425-0.448-3.222 0.671-4.349 1.283-1.305 3.409-1.455 4.826-0.336l0.276 0.216 0.94-0.91-0.336-0.291c-0.41-0.358-1.231-0.783-1.813-0.925-0.649-0.172-1.581-0.201-2.178-0.089z"></path>
<path d="M33.417 14.098v4.774h1.343v-9.548h-1.343v4.774z"></path>
<path d="M14.314 12.778c-1.641 0.559-2.529 2.335-2.007 4.020 0.276 0.895 0.835 1.529 1.716 1.947 0.41 0.201 0.589 0.239 1.201 0.261 0.888 0.037 1.365-0.090 2.014-0.53 1.865-1.246 1.872-4.080 0.015-5.318-0.858-0.567-1.969-0.709-2.939-0.38zM15.933 13.911c0.798 0.239 1.32 0.985 1.32 1.887 0 0.865-0.388 1.514-1.104 1.85-0.903 0.433-1.977 0.022-2.432-0.925-0.448-0.91-0.052-2.238 0.791-2.678 0.507-0.269 0.873-0.298 1.425-0.134z"></path>
<path d="M21.557 12.71c-0.88 0.246-1.581 0.828-1.992 1.671-0.276 0.559-0.283 0.582-0.283 1.425 0 0.813 0.015 0.895 0.231 1.358 0.664 1.395 2.118 2.133 3.588 1.828 1.678-0.351 2.73-1.716 2.611-3.401-0.119-1.76-1.469-2.999-3.252-2.976-0.313 0-0.716 0.045-0.903 0.097zM23.019 13.911c0.485 0.142 0.865 0.47 1.104 0.947 0.373 0.738 0.224 1.828-0.313 2.394-0.5 0.53-1.35 0.709-2.014 0.425-0.418-0.179-0.865-0.619-1.022-1-0.44-1.052 0.052-2.342 1.029-2.723 0.47-0.179 0.731-0.194 1.216-0.045z"></path>
<path d="M28.509 12.74c-0.955 0.343-1.716 1.134-2.029 2.096-0.142 0.448-0.164 0.642-0.134 1.201 0.052 0.865 0.321 1.469 0.932 2.081 0.597 0.589 1.149 0.843 1.932 0.888 0.738 0.037 1.216-0.097 1.663-0.477l0.306-0.269v0.552c0 0.701-0.097 1.044-0.395 1.38-0.328 0.373-0.731 0.545-1.328 0.545-0.373 0-0.567-0.045-0.82-0.172-0.291-0.157-0.746-0.634-0.828-0.873-0.030-0.104-1.179 0.358-1.179 0.485 0 0.179 0.664 0.992 1 1.231 0.694 0.47 1.507 0.656 2.312 0.537 1.417-0.224 2.283-1.111 2.514-2.588 0.037-0.246 0.060-1.828 0.052-3.506l-0.022-3.058-0.612-0.022c-0.649-0.022-0.649-0.022-0.619 0.336 0.015 0.201-0.157 0.231-0.306 0.052-0.395-0.477-1.663-0.694-2.439-0.418zM30.404 14.061c0.85 0.5 1.164 1.813 0.664 2.797-0.343 0.671-1.007 1.037-1.753 0.947-0.642-0.075-1.149-0.462-1.447-1.096-0.194-0.418-0.201-1.313-0.015-1.731 0.455-1.044 1.626-1.462 2.551-0.917z"></path>
<path d="M37.632 12.703c-0.791 0.269-1.455 0.813-1.798 1.477-0.873 1.731-0.276 3.707 1.373 4.528 0.559 0.269 0.582 0.276 1.432 0.276s0.873-0.007 1.425-0.276c0.373-0.186 0.686-0.41 0.925-0.664l0.351-0.38-0.492-0.328c-0.269-0.179-0.507-0.328-0.537-0.328-0.022 0-0.209 0.142-0.403 0.321-0.604 0.545-1.373 0.656-2.081 0.306-0.403-0.209-0.843-0.724-0.709-0.843 0.037-0.037 0.94-0.425 2.007-0.865s2.014-0.843 2.111-0.888l0.172-0.089-0.306-0.604c-0.343-0.686-0.865-1.231-1.469-1.514-0.44-0.216-1.522-0.283-1.999-0.127zM39.213 13.941c0.328 0.149 0.612 0.492 0.5 0.597-0.067 0.060-2.812 1.201-2.894 1.201-0.075 0-0.052-0.254 0.075-0.679 0.142-0.47 0.656-1.029 1.074-1.164 0.403-0.127 0.903-0.104 1.246 0.045z"></path>
</symbol>
</defs>
</svg>