<svg width="106" height="60" viewBox="0 0 106 60" fill="none" xmlns="http://www.w3.org/2000/svg">
<path d="M24.1462 21.1028H24.1433C21.7453 21.1028 19.8013 22.8304 19.8013 24.9615V24.964C19.8013 27.0951 21.7453 28.8227 24.1433 28.8227H24.1462C26.5442 28.8227 28.4882 27.0951 28.4882 24.964V24.9615C28.4882 22.8304 26.5442 21.1028 24.1462 21.1028Z" fill="#AFB1B8"/>
<path d="M56.195 19.8693C56.1882 16.9093 54.8623 14.0722 52.5074 11.979C50.1525 9.88568 46.9605 8.70667 43.6298 8.69995V8.69995C40.2981 8.70533 37.1045 9.88374 34.7484 11.9772C32.3923 14.0706 31.0656 16.9084 31.0587 19.8693V36.1921C31.0587 36.1921 56.1922 33.7044 56.195 19.8718V19.8693Z" fill="#AFB1B8"/>
<path d="M11 41.5495C11.0061 43.6091 11.9292 45.5828 13.5676 47.0394C15.2061 48.496 17.4267 49.317 19.7442 49.3231C22.0612 49.317 24.2814 48.4963 25.9198 47.0403C27.5581 45.5843 28.4816 43.6112 28.4884 41.552V30.1943C28.4884 30.1943 11 31.9266 11 41.5495ZM19.7442 43.5844C19.2913 43.5844 18.8486 43.4651 18.4721 43.2415C18.0955 43.0179 17.802 42.7001 17.6287 42.3282C17.4554 41.9564 17.41 41.5472 17.4984 41.1525C17.5867 40.7577 17.8048 40.3951 18.1251 40.1105C18.4453 39.8259 18.8533 39.6321 19.2975 39.5536C19.7417 39.4751 20.2021 39.5154 20.6205 39.6694C21.0389 39.8234 21.3965 40.0843 21.6481 40.4189C21.8997 40.7535 22.034 41.147 22.034 41.5495C22.0351 41.8173 21.9767 42.0828 21.8622 42.3306C21.7476 42.5783 21.5791 42.8036 21.3664 42.9933C21.1536 43.1831 20.9008 43.3337 20.6225 43.4364C20.3441 43.5392 20.0456 43.5921 19.7442 43.5921V43.5844Z" fill="#AFB1B8"/>
<path d="M35.7302 39.9412V44.2068H34.8513V39.9412H35.7302ZM37.4294 41.7634V42.449H35.49V41.7634H37.4294ZM37.6345 39.9412V40.6296H35.49V39.9412H37.6345ZM41.6482 41.9744V42.1765C41.6482 42.5007 41.6042 42.7917 41.5163 43.0496C41.4284 43.3074 41.3044 43.5271 41.1443 43.7087C40.9841 43.8884 40.7927 44.0261 40.57 44.1218C40.3493 44.2175 40.1042 44.2654 39.8347 44.2654C39.5671 44.2654 39.322 44.2175 39.0993 44.1218C38.8786 44.0261 38.6872 43.8884 38.5251 43.7087C38.363 43.5271 38.237 43.3074 38.1472 43.0496C38.0593 42.7917 38.0154 42.5007 38.0154 42.1765V41.9744C38.0154 41.6482 38.0593 41.3572 38.1472 41.1013C38.2351 40.8435 38.3591 40.6238 38.5193 40.4421C38.6814 40.2605 38.8728 40.1218 39.0935 40.0261C39.3161 39.9304 39.5612 39.8826 39.8288 39.8826C40.0984 39.8826 40.3435 39.9304 40.5642 40.0261C40.7868 40.1218 40.9782 40.2605 41.1384 40.4421C41.3005 40.6238 41.4255 40.8435 41.5134 41.1013C41.6032 41.3572 41.6482 41.6482 41.6482 41.9744ZM40.7605 42.1765V41.9685C40.7605 41.7419 40.74 41.5427 40.6989 41.3708C40.6579 41.199 40.5974 41.0544 40.5173 40.9373C40.4372 40.8201 40.3396 40.7322 40.2243 40.6736C40.1091 40.613 39.9773 40.5828 39.8288 40.5828C39.6804 40.5828 39.5486 40.613 39.4333 40.6736C39.32 40.7322 39.2234 40.8201 39.1433 40.9373C39.0652 41.0544 39.0056 41.199 38.9646 41.3708C38.9236 41.5427 38.903 41.7419 38.903 41.9685V42.1765C38.903 42.4011 38.9236 42.6003 38.9646 42.7742C39.0056 42.946 39.0661 43.0916 39.1462 43.2107C39.2263 43.3279 39.3239 43.4167 39.4392 43.4773C39.5544 43.5378 39.6862 43.5681 39.8347 43.5681C39.9831 43.5681 40.115 43.5378 40.2302 43.4773C40.3454 43.4167 40.4421 43.3279 40.5202 43.2107C40.5984 43.0916 40.6579 42.946 40.6989 42.7742C40.74 42.6003 40.7605 42.4011 40.7605 42.1765ZM44.5017 43.0906C44.5017 43.0144 44.49 42.946 44.4665 42.8855C44.445 42.823 44.404 42.7664 44.3435 42.7156C44.2829 42.6628 44.198 42.6111 44.0886 42.5603C43.9792 42.5095 43.8376 42.4568 43.6638 42.4021C43.4704 42.3396 43.2868 42.2693 43.113 42.1912C42.9411 42.113 42.7888 42.0222 42.656 41.9187C42.5251 41.8132 42.4216 41.6912 42.3454 41.5525C42.2712 41.4138 42.2341 41.2527 42.2341 41.0691C42.2341 40.8914 42.2732 40.7302 42.3513 40.5857C42.4294 40.4392 42.5388 40.3142 42.6794 40.2107C42.82 40.1052 42.9861 40.0242 43.1775 39.9675C43.3708 39.9109 43.5827 39.8826 43.8132 39.8826C44.1277 39.8826 44.4021 39.9392 44.6364 40.0525C44.8708 40.1658 45.0525 40.321 45.1814 40.5183C45.3122 40.7156 45.3777 40.9412 45.3777 41.1951H44.5046C44.5046 41.0701 44.4782 40.9607 44.4255 40.8669C44.3747 40.7712 44.2966 40.696 44.1911 40.6414C44.0876 40.5867 43.9568 40.5593 43.7986 40.5593C43.6462 40.5593 43.5193 40.5828 43.4177 40.6296C43.3161 40.6746 43.24 40.7361 43.1892 40.8142C43.1384 40.8904 43.113 40.9763 43.113 41.072C43.113 41.1443 43.1306 41.2097 43.1657 41.2683C43.2029 41.3269 43.2575 41.3816 43.3298 41.4324C43.4021 41.4832 43.4909 41.531 43.5964 41.5759C43.7019 41.6208 43.8239 41.6648 43.9626 41.7078C44.195 41.7781 44.3991 41.8572 44.5749 41.9451C44.7527 42.033 44.9011 42.1316 45.0202 42.241C45.1394 42.3503 45.2292 42.4744 45.2898 42.613C45.3503 42.7517 45.3806 42.9089 45.3806 43.0847C45.3806 43.2703 45.3445 43.4363 45.2722 43.5828C45.1999 43.7292 45.0954 43.8533 44.9587 43.9548C44.822 44.0564 44.6589 44.1335 44.4695 44.1863C44.28 44.239 44.0681 44.2654 43.8337 44.2654C43.6228 44.2654 43.4148 44.238 43.2097 44.1833C43.0046 44.1267 42.8181 44.0417 42.6501 43.9285C42.4841 43.8152 42.3513 43.6707 42.2517 43.4949C42.1521 43.3191 42.1023 43.1111 42.1023 42.8708H42.9841C42.9841 43.0037 43.0046 43.116 43.0456 43.2078C43.0866 43.2996 43.1443 43.3738 43.2185 43.4304C43.2946 43.4871 43.3845 43.5281 43.488 43.5535C43.5935 43.5789 43.7087 43.5916 43.8337 43.5916C43.9861 43.5916 44.1111 43.5701 44.2087 43.5271C44.3083 43.4841 44.3816 43.4246 44.4284 43.3484C44.4773 43.2722 44.5017 43.1863 44.5017 43.0906ZM47.8855 39.9412V44.2068H47.0095V39.9412H47.8855ZM49.198 39.9412V40.6296H45.7175V39.9412H49.198ZM52.5612 43.5212V44.2068H50.2907V43.5212H52.5612ZM50.5779 39.9412V44.2068H49.6989V39.9412H50.5779ZM52.2654 41.6785V42.3464H50.2907V41.6785H52.2654ZM52.5583 39.9412V40.6296H50.2907V39.9412H52.5583ZM53.0739 39.9412H54.6648C54.9909 39.9412 55.2712 39.99 55.5056 40.0876C55.7419 40.1853 55.9236 40.3298 56.0505 40.5212C56.1775 40.7126 56.2409 40.948 56.2409 41.2273C56.2409 41.4558 56.2019 41.6521 56.1237 41.8162C56.0476 41.9783 55.9392 42.114 55.7986 42.2234C55.6599 42.3308 55.4968 42.4167 55.3093 42.4812L55.031 42.6277H53.6482L53.6423 41.9421H54.6706C54.8249 41.9421 54.9529 41.9148 55.0544 41.8601C55.156 41.8054 55.2321 41.7292 55.2829 41.6316C55.3357 41.5339 55.362 41.4207 55.362 41.2917C55.362 41.155 55.3366 41.0369 55.2859 40.9373C55.2351 40.8376 55.1579 40.7615 55.0544 40.7087C54.9509 40.656 54.821 40.6296 54.6648 40.6296H53.9529V44.2068H53.0739V39.9412ZM55.4587 44.2068L54.4861 42.3054L55.4148 42.2996L56.3991 44.1658V44.2068H55.4587ZM60.073 42.6863H58.9861V42.0007H60.073C60.2409 42.0007 60.3777 41.9734 60.4831 41.9187C60.5886 41.8621 60.6657 41.7839 60.7146 41.6843C60.7634 41.5847 60.7878 41.4724 60.7878 41.3474C60.7878 41.2205 60.7634 41.1023 60.7146 40.9929C60.6657 40.8835 60.5886 40.7957 60.4831 40.7292C60.3777 40.6628 60.2409 40.6296 60.073 40.6296H59.2907V44.2068H58.4118V39.9412H60.073C60.407 39.9412 60.6931 40.0017 60.9314 40.1228C61.1716 40.2419 61.3552 40.407 61.4821 40.6179C61.6091 40.8289 61.6726 41.0701 61.6726 41.3416C61.6726 41.6169 61.6091 41.8552 61.4821 42.0564C61.3552 42.2576 61.1716 42.4128 60.9314 42.5222C60.6931 42.6316 60.407 42.6863 60.073 42.6863ZM65.1413 43.5212V44.2068H62.8708V43.5212H65.1413ZM63.1579 39.9412V44.2068H62.279V39.9412H63.1579ZM64.8454 41.6785V42.3464H62.8708V41.6785H64.8454ZM65.1384 39.9412V40.6296H62.8708V39.9412H65.1384ZM67.6198 39.9412V44.2068H66.7439V39.9412H67.6198ZM68.9323 39.9412V40.6296H65.4519V39.9412H68.9323ZM72.2956 43.5212V44.2068H70.0251V43.5212H72.2956ZM70.3122 39.9412V44.2068H69.4333V39.9412H70.3122ZM71.9997 41.6785V42.3464H70.0251V41.6785H71.9997ZM72.2927 39.9412V40.6296H70.0251V39.9412H72.2927ZM72.8083 39.9412H74.3991C74.7253 39.9412 75.0056 39.99 75.24 40.0876C75.4763 40.1853 75.6579 40.3298 75.7849 40.5212C75.9118 40.7126 75.9753 40.948 75.9753 41.2273C75.9753 41.4558 75.9362 41.6521 75.8581 41.8162C75.782 41.9783 75.6736 42.114 75.5329 42.2234C75.3943 42.3308 75.2312 42.4167 75.0437 42.4812L74.7654 42.6277H73.3825L73.3767 41.9421H74.405C74.5593 41.9421 74.6872 41.9148 74.7888 41.8601C74.8904 41.8054 74.9665 41.7292 75.0173 41.6316C75.07 41.5339 75.0964 41.4207 75.0964 41.2917C75.0964 41.155 75.071 41.0369 75.0202 40.9373C74.9695 40.8376 74.8923 40.7615 74.7888 40.7087C74.6853 40.656 74.5554 40.6296 74.3991 40.6296H73.6872V44.2068H72.8083V39.9412ZM75.1931 44.2068L74.2204 42.3054L75.1491 42.2996L76.1335 44.1658V44.2068H75.1931ZM78.8728 43.0906C78.8728 43.0144 78.8611 42.946 78.8376 42.8855C78.8161 42.823 78.7751 42.7664 78.7146 42.7156C78.654 42.6628 78.5691 42.6111 78.4597 42.5603C78.3503 42.5095 78.2087 42.4568 78.0349 42.4021C77.8415 42.3396 77.6579 42.2693 77.4841 42.1912C77.3122 42.113 77.1599 42.0222 77.0271 41.9187C76.8962 41.8132 76.7927 41.6912 76.7165 41.5525C76.6423 41.4138 76.6052 41.2527 76.6052 41.0691C76.6052 40.8914 76.6443 40.7302 76.7224 40.5857C76.8005 40.4392 76.9099 40.3142 77.0505 40.2107C77.1911 40.1052 77.3571 40.0242 77.5486 39.9675C77.7419 39.9109 77.9538 39.8826 78.1843 39.8826C78.4987 39.8826 78.7732 39.9392 79.0075 40.0525C79.2419 40.1658 79.4236 40.321 79.5525 40.5183C79.6833 40.7156 79.7487 40.9412 79.7487 41.1951H78.8757C78.8757 41.0701 78.8493 40.9607 78.7966 40.8669C78.7458 40.7712 78.6677 40.696 78.5622 40.6414C78.4587 40.5867 78.3279 40.5593 78.1696 40.5593C78.0173 40.5593 77.8904 40.5828 77.7888 40.6296C77.6872 40.6746 77.6111 40.7361 77.5603 40.8142C77.5095 40.8904 77.4841 40.9763 77.4841 41.072C77.4841 41.1443 77.5017 41.2097 77.5368 41.2683C77.5739 41.3269 77.6286 41.3816 77.7009 41.4324C77.7732 41.4832 77.862 41.531 77.9675 41.5759C78.073 41.6208 78.195 41.6648 78.3337 41.7078C78.5661 41.7781 78.7702 41.8572 78.946 41.9451C79.1237 42.033 79.2722 42.1316 79.3913 42.241C79.5105 42.3503 79.6003 42.4744 79.6609 42.613C79.7214 42.7517 79.7517 42.9089 79.7517 43.0847C79.7517 43.2703 79.7155 43.4363 79.6433 43.5828C79.571 43.7292 79.4665 43.8533 79.3298 43.9548C79.1931 44.0564 79.03 44.1335 78.8405 44.1863C78.6511 44.239 78.4392 44.2654 78.2048 44.2654C77.9939 44.2654 77.7859 44.238 77.5808 44.1833C77.3757 44.1267 77.1892 44.0417 77.0212 43.9285C76.8552 43.8152 76.7224 43.6707 76.6228 43.4949C76.5232 43.3191 76.4734 43.1111 76.4734 42.8708H77.3552C77.3552 43.0037 77.3757 43.116 77.4167 43.2078C77.4577 43.2996 77.5154 43.3738 77.5896 43.4304C77.6657 43.4871 77.7556 43.5281 77.8591 43.5535C77.9646 43.5789 78.0798 43.5916 78.2048 43.5916C78.3571 43.5916 78.4821 43.5701 78.5798 43.5271C78.6794 43.4841 78.7527 43.4246 78.7995 43.3484C78.8484 43.2722 78.8728 43.1863 78.8728 43.0906Z" fill="#AFB1B8"/>
</svg>
